PathFileType	4	(X/Y/Z)	Walk5.trc
DataRate	CameraRate	NumFrames	NumMarkers	Units	OrigDataRate	OrigDataStartFrame	OrigNumFrames
200.000000	200.000000	4	69	mm	200.000000	413	453
Frame#	Times		LFHD		RFHD		LBHD		RBHD		C7		CLAV		STRN		RBack		LASI		RASI		LPSI		RPSI		RACR1		RUA1		RElbow		RFA1		RWRR		RWRU		RCAR		LACR1		LUA1		LElbow		LElbowM		LFA1		LWRR		LWRU		LCAR		RTH1		RTH3		RTH2		RTH4		RLFC		RTB1		RTB3		RTB2		RTB4		RLMAL		RMMAL		RCAL		RMT1		RMT5		RToe		LTH1		LTH3		LTH2		LTH4		LLFC		LTB1		LTB3		LTB2		LTB4		LMMAL		LMT1		LMT5		LHJC		LowerBodyModelVer		MidPelvis		OPelvis		PELOrigin		RHJC		SACR		XPelvis		YPelvis		ZPelvis		LToe		T10		LLMAL		LCAL		RElbowM
			X1	Y1	Z1	X2	Y2	Z2	X3	Y3	Z3	X4	Y4	Z4	X5	Y5	Z5	X6	Y6	Z6	X7	Y7	Z7	X8	Y8	Z8	X9	Y9	Z9	X10	Y10	Z10	X11	Y11	Z11	X12	Y12	Z12	X13	Y13	Z13	X14	Y14	Z14	X15	Y15	Z15	X16	Y16	Z16	X17	Y17	Z17	X18	Y18	Z18	X19	Y19	Z19	X20	Y20	Z20	X21	Y21	Z21	X22	Y22	Z22	X23	Y23	Z23	X24	Y24	Z24	X25	Y25	Z25	X26	Y26	Z26	X27	Y27	Z27	X28	Y28	Z28	X29	Y29	Z29	X30	Y30	Z30	X31	Y31	Z31	X32	Y32	Z32	X33	Y33	Z33	X34	Y34	Z34	X35	Y35	Z35	X36	Y36	Z36	X37	Y37	Z37	X38	Y38	Z38	X39	Y39	Z39	X40	Y40	Z40	X41	Y41	Z41	X42	Y42	Z42	X43	Y43	Z43	X44	Y44	Z44	X45	Y45	Z45	X46	Y46	Z46	X47	Y47	Z47	X48	Y48	Z48	X49	Y49	Z49	X50	Y50	Z50	X51	Y51	Z51	X52	Y52	Z52	X53	Y53	Z53	X54	Y54	Z54	X55	Y55	Z55	X56	Y56	Z56	X57	Y57	Z57	X58	Y58	Z58	X59	Y59	Z59	X60	Y60	Z60	X61	Y61	Z61	X62	Y62	Z62	X63	Y63	Z63	X64	Y64	Z64	X65	Y65	Z65	X66	Y66	Z66	X67	Y67	Z67	X68	Y68	Z68	X69	Y69	Z69

413	2.065	880.44	1603.7	-100.59	899.65	1604.8	-8.1671	724.29	1555.4	-97.326	753.1	1557	41.301	706.79	1422.9	-33.051	846.67	1349.7	-34.615	911.04	1248.8	-21.589	652.97	1326.4	69.425	918.17	971.54	-156.77	890.2	987.41	131.61	660.71	970.26	-74.133	655.17	970.61	15.342	776.26	1384.3	120.81	749.55	1203.9	218.93	694.15	1086.5	243.11	695.14	940.05	264.68	774.4	839.2	239.07	714.87	831.8	276.72	777.79	787.78	291.23	789.18	1382.6	-191.35	797.33	1202.8	-286.78	776.69	1076.7	-319.22	738.37	1044	-251.7	807.97	942.46	-335.61	892.72	847.5	-284.91	850.62	833.68	-343.5	919.15	805.94	-325.96	841.79	746.16	201.65	906.2	589.2	168.03	927.79	690.9	184.02	873.2	666.24	182.97	935.25	512.23	148.89	939	350.13	89.846	836.48	211.6	79.484	859.18	297.7	134.69	887.74	280.87	84.665	739.94	133.83	93.035	770.98	132.21	15.505	673.99	126.19	44.352	838.65	56.774	51.907	796.85	61.048	116.4	887.66	42.424	93.94	821.14	761.1	-236.67	806.86	601.81	-176.18	868.99	687.09	-185.08	813.12	682.86	-201.64	798.29	480.62	-141.24	830.42	336.67	-61.226	799.82	167.23	-61.426	794.09	253.47	-117.77	814.66	251.61	-59.829	760.31	65.983	-1.2108	863.63	30.305	-17.182	834.84	24.208	-97.571	848.64	878.83	-111.69	9	2014	4	781.06	974.96	-20.987	904.18	979.48	-12.579	904.18	979.48	-12.579	829.63	889.62	84.405	657.94	970.44	-29.396	983.77	982.52	-5.0287	901.57	1059.3	-17.226	896.47	983.85	66.929	932.86	25.627	-41.968	643.03	1154.1	-39.956	750.13	60.667	-85.562	685.58	31.847	-52.867	692.21	1054.6	149.51
414	2.07	885.67	1603.5	-100.29	904.76	1604.6	-7.8414	729.57	1555.1	-97.246	758.21	1556.7	41.42	712.07	1422.8	-33.128	851.85	1349.4	-34.567	916.08	1248.4	-21.487	658	1326.3	69.138	922.55	971.22	-157.33	895.44	987.25	131.25	665.41	970.02	-73.645	660.06	970.41	15.853	781.29	1384	120.82	754.24	1203.5	218.74	698.56	1086.2	242.74	699.35	939.71	264.22	778.88	838.89	239.05	719.04	831.36	276.2	781.96	787.55	291.3	794.68	1382.5	-191.3	803.57	1203	-287.09	783.79	1076.9	-319.88	745.18	1043.9	-252.77	816.62	942.87	-335.94	902.37	849.06	-284.62	860.5	834.44	-343.23	929.46	807.88	-325.58	847.66	746.28	201.85	913.43	589.99	167.62	934.23	691.82	184.14	879.79	666.75	182.92	942.94	513.23	148.28	949.73	350.82	89.177	851.37	209.42	79.099	871.58	296.1	134.21	900.55	280.12	84.138	757.08	128.94	92.822	788.5	128.25	15.663	691.32	119.14	44.125	858.2	55.119	52.048	816.23	58.316	116.62	907.76	42.78	94.098	824.68	760.79	-236.79	808.91	601.75	-176.08	871.82	686.4	-185.15	815.9	682.68	-201.58	799.65	480.54	-141.29	831.23	336.46	-61.195	800.19	167.14	-61.363	794.74	253.38	-117.74	815.18	251.45	-59.778	760.29	65.942	-1.1363	863.78	30.222	-17.149	834.86	24.183	-97.56	853.14	878.49	-111.98	9	2014	4	785.87	974.72	-20.968	909	979.23	-13.04	909	979.23	-13.04	834.7	889.39	84.258	662.74	970.21	-28.896	988.61	982.28	-5.73	906.38	1059.1	-17.719	901.53	983.65	66.488	932.98	25.573	-41.959	648.01	1154	-40.24	750.23	60.69	-85.453	685.57	31.975	-52.764	696.85	1054.4	149.13
415	2.075	890.9	1603.4	-99.975	909.89	1604.3	-7.5051	734.85	1554.8	-97.159	763.32	1556.3	41.546	717.35	1422.6	-33.19	857.03	1349.1	-34.519	921.12	1248	-21.417	663.04	1326.1	68.872	926.94	970.83	-157.88	900.67	987.01	130.92	670.12	969.74	-73.136	664.96	970.16	16.386	786.34	1383.6	120.83	758.94	1203.1	218.57	702.98	1085.8	242.39	703.58	939.34	263.77	783.38	838.53	239.06	723.25	830.88	275.73	786.15	787.27	291.38	800.17	1382.4	-191.24	809.85	1203.1	-287.37	790.91	1077	-320.51	752	1043.7	-253.81	825.24	943.25	-336.23	911.97	850.59	-284.32	870.33	835.18	-342.92	939.7	809.78	-325.18	853.58	746.38	202.05	920.53	590.72	167.18	940.63	692.64	184.2	886.32	667.23	182.86	950.39	514.12	147.64	960.32	351.48	88.512	866.32	207.27	78.752	883.95	294.48	133.75	913.32	279.37	83.632	774.41	124.05	92.643	806.33	124.36	15.976	708.96	112.11	43.921	877.85	53.579	52.288	835.73	55.626	116.85	927.86	43.232	94.318	828.22	760.46	-236.92	811.02	601.69	-175.96	874.68	685.7	-185.22	818.71	682.49	-201.53	801.05	480.46	-141.33	832.09	336.25	-61.161	800.58	167.04	-61.298	795.42	253.3	-117.71	815.72	251.28	-59.725	760.32	65.878	-1.0833	863.93	30.134	-17.12	834.88	24.154	-97.55	857.61	878.09	-112.25	9	2014	4	790.68	974.43	-20.926	913.81	978.92	-13.477	913.81	978.92	-13.477	839.75	889.1	84.133	667.54	969.95	-28.375	993.44	981.96	-6.4041	911.18	1058.7	-18.188	906.57	983.38	66.071	933.12	25.514	-41.944	653	1153.9	-40.492	750.33	60.72	-85.338	685.56	32.113	-52.652	701.5	1054	148.76
416	2.08	896.14	1603.2	-99.655	915.01	1604.1	-7.1593	740.13	1554.5	-97.064	768.44	1555.8	41.679	722.64	1422.3	-33.237	862.22	1348.7	-34.472	926.17	1247.5	-21.378	668.09	1325.8	68.631	931.33	970.37	-158.39	905.9	986.72	130.62	674.84	969.42	-72.608	669.88	969.87	16.937	791.4	1383.2	120.85	763.65	1202.6	218.41	707.42	1085.4	242.05	707.83	938.92	263.34	787.89	838.14	239.08	727.5	830.38	275.31	790.35	786.96	291.48	805.66	1382.2	-191.17	816.15	1203.2	-287.62	798.03	1077.1	-321.12	758.83	1043.5	-254.84	833.84	943.6	-336.5	921.53	852.09	-283.99	880.11	835.9	-342.57	949.86	811.64	-324.75	859.56	746.46	202.26	927.47	591.37	166.72	947	693.36	184.18	892.81	667.65	182.78	957.6	514.88	146.98	970.77	352.1	87.853	881.32	205.15	78.445	896.29	292.85	133.31	926.04	278.63	83.149	791.94	119.22	92.498	824.46	120.55	16.464	726.91	105.14	43.74	897.59	52.18	52.638	855.33	53.002	117.1	947.95	43.799	94.617	831.76	760.12	-237.06	813.18	601.63	-175.85	877.57	684.99	-185.3	821.56	682.3	-201.48	802.51	480.37	-141.37	832.99	336.03	-61.13	800.98	166.94	-61.233	796.12	253.21	-117.67	816.29	251.11	-59.676	760.41	65.797	-1.0502	864.08	30.045	-17.096	834.89	24.12	-97.539	862.08	877.63	-112.5	9	2014	4	795.49	974.09	-20.861	918.61	978.55	-13.886	918.61	978.55	-13.886	844.78	888.74	84.035	672.36	969.64	-27.836	998.26	981.56	-7.0468	916	1058.4	-18.63	911.61	983.04	65.68	933.26	25.448	-41.929	658.01	1153.7	-40.712	750.43	60.757	-85.22	685.55	32.26	-52.532	706.16	1053.7	148.41
